<svg version="1.0" xmlns="http://www.w3.org/2000/svg" width="230.000000pt" height="53.000000pt"
     viewBox="0 0 230.000000 53.000000" preserveAspectRatio="xMidYMid meet">
  <g transform="translate(0.000000,53.000000) scale(0.100000,-0.100000)" fill="#3387d7" stroke="none">
    <path
      d="M163 432 c-47 -5 -75 -44 -71 -101 l3 -46 130 -1 c72 0 96 1 55 3 -41 2 -85 5 -96 8 -28 6 -36 38 -17 64 13 19 24 21 117 21 88 0 105 3 110 17 4 9 2 21 -3 26 -9 9 -163 15 -228 9z"/>
    <path d="M483 433 c-9 -3 -13 -29 -13 -79 l0 -74 30 0 30 0 0 68 c0 78 -12 100 -47 85z"/>
    <path
      d="M888 428 c-14 -11 -68 -125 -68 -143 0 -3 13 -5 29 -5 25 0 31 6 46 47 l19 48 19 -48 c17 -41 23 -47 48 -47 16 0 29 2 29 5 0 13 -53 122 -67 137 -19 21 -33 23 -55 6z"/>
    <path d="M1152 428 c-7 -7 -12 -40 -12 -80 l0 -68 36 0 36 0 -4 71 c-2 47 -8 73 -18 79 -20 13 -24 12 -38 -2z"/>
    <path
      d="M1290 430 c-5 -3 -10 -38 -12 -78 l-3 -72 33 0 c32 0 32 0 32 50 l0 50 58 0 c70 0 99 -18 108 -65 6 -32 9 -35 41 -35 34 0 34 1 28 33 -12 58 -29 82 -74 104 -37 19 -59 22 -124 20 -43 -1 -83 -4 -87 -7z"/>
    <path
      d="M1750 427 c-46 -11 -78 -42 -90 -86 -18 -63 -22 -61 128 -59 l137 2 -100 5 c-100 6 -100 6 -97 31 6 44 36 60 113 60 54 0 71 4 76 16 3 8 0 21 -6 27 -14 14 -113 17 -161 4z"/>
    <path
      d="M2015 427 c-11 -6 -15 -27 -15 -77 l0 -70 45 0 c33 0 45 -4 45 -15 0 -11 -12 -15 -45 -15 l-45 0 0 -70 0 -70 30 0 c32 0 33 2 34 85 1 40 1 40 43 43 l42 3 38 -65 c34 -59 41 -66 71 -66 17 0 32 3 32 6 0 3 -16 33 -36 67 -20 34 -32 63 -26 65 62 20 75 136 20 172 -26 16 -207 22 -233 7z m193 -59 c19 -19 14 -56 -8 -68 -11 -6 -46 -10 -77 -8 -61 3 -61 3 -54 76 1 16 122 17 139 0z"/>
    <path
      d="M220 241 c93 -7 110 -13 110 -41 0 -31 -32 -40 -139 -40 l-101 0 0 -25 0 -25 128 0 c115 0 130 2 150 20 24 23 35 56 30 91 -3 24 -4 24 -133 25 -111 1 -117 0 -45 -5z"/>
    <path
      d="M470 209 c0 -31 6 -47 29 -70 28 -27 34 -29 110 -29 79 0 81 1 81 24 0 22 -4 24 -66 28 -72 4 -94 20 -94 65 0 19 -5 23 -30 23 -28 0 -30 -2 -30 -41z"/>
    <path
      d="M776 188 c-14 -35 -26 -67 -26 -71 0 -5 14 -7 32 -5 29 3 34 9 55 63 29 75 29 75 -5 75 -26 0 -32 -7 -56 -62z"/>
    <path d="M988 180 c26 -67 28 -70 59 -70 18 0 33 2 33 5 0 2 -12 34 -27 70 -25 61 -29 65 -59 65 l-32 0 26 -70z"/>
    <path d="M1140 180 l0 -70 33 0 33 0 1 70 2 70 -35 0 -34 0 0 -70z"/>
    <path
      d="M1275 180 l0 -70 105 0 c121 0 161 16 186 75 22 54 19 65 -20 65 -29 0 -34 -4 -42 -32 -12 -41 -44 -58 -111 -58 l-53 0 0 45 c0 44 -1 45 -32 45 l-33 0 0 -70z"/>
    <path
      d="M1656 218 c18 -83 60 -108 179 -108 84 0 85 0 85 25 0 24 -2 25 -74 25 -79 0 -112 15 -118 55 -3 19 4 20 97 26 l100 5 -138 2 -139 2 8 -32z"/>
  </g>
</svg>
